<svg id="Layer_1" data-name="Layer 1" xmlns="http://www.w3.org/2000/svg" xmlns:xlink="http://www.w3.org/1999/xlink" viewBox="0 0 812.31 530.01"><defs><style>.cls-1{fill:#3f3d56;}.cls-2{fill:#e6e6e6;}.cls-3{fill:#fff;}.cls-4{fill:#6c63ff;}.cls-5{fill:url(#linear-gradient);}.cls-6{fill:url(#linear-gradient-2);}.cls-7{fill:#e5e5e5;}.cls-8{fill:#e0ab80;}.cls-9{fill:url(#linear-gradient-3);}.cls-10{fill:url(#linear-gradient-4);}.cls-11{fill:url(#linear-gradient-5);}.cls-12{isolation:isolate;opacity:0.1;}.cls-13{fill:#2f2e41;}.cls-14{fill:url(#linear-gradient-6);}</style><linearGradient id="linear-gradient" x1="748.25" y1="517.66" x2="787.87" y2="517.66" gradientUnits="userSpaceOnUse"><stop offset="0" stop-color="#ff4747"/><stop offset="1" stop-color="#ff4747"/></linearGradient><linearGradient id="linear-gradient-2" x1="781.81" y1="519.95" x2="824.32" y2="519.95" xlink:href="#linear-gradient"/><linearGradient id="linear-gradient-3" x1="355.94" y1="375.25" x2="486.82" y2="375.25" xlink:href="#linear-gradient"/><linearGradient id="linear-gradient-4" x1="437.32" y1="382.82" x2="499.13" y2="382.82" xlink:href="#linear-gradient"/><linearGradient id="linear-gradient-5" x1="258.76" y1="273.62" x2="402.17" y2="273.62" xlink:href="#linear-gradient"/><linearGradient id="linear-gradient-6" x1="244.09" y1="105.35" x2="293.86" y2="105.35" xlink:href="#linear-gradient"/></defs><path id="f8c762bc-b7e7-4c8e-b73e-f411c620c2bd-243" class="cls-1" d="M648.07,102.91h-198V97H360.32v5.91H161.53c-7.4,0-13.39,8.69-13.39,19.4h0V515c0,10.71,6,19.4,13.39,19.4H648.07c7.4,0,13.4-8.69,13.4-19.4V122.31C661.46,111.59,655.47,102.91,648.07,102.91Z" transform="translate(-12.46 -34.61)"/><rect id="febd0196-f53d-4e2b-8506-d3dc9ab4b723" class="cls-2" x="153.63" y="87.39" width="477.42" height="407.49"/><rect id="a687e43e-dc25-402c-aff7-aaf80cd82cec" class="cls-3" x="173.88" y="100.39" width="437.09" height="372.21"/><circle id="fb392c0f-c18b-4dca-9f8d-a13ba02e8cd8" class="cls-4" cx="391.93" cy="213.33" r="4.9"/><path id="a3b325e1-b438-4eea-a78d-99975bd1014d-244" class="cls-1" d="M700.52,524.6h-51v-3.36a.7.7,0,0,0-.73-.67H631.32a.7.7,0,0,0-.73.67h0v3.36H619.66v-3.36a.7.7,0,0,0-.73-.67H601.45a.7.7,0,0,0-.73.67h0v3.36H589.79v-3.36a.69.69,0,0,0-.72-.67H571.58a.7.7,0,0,0-.73.67h0v3.36H559.93v-3.36a.7.7,0,0,0-.73-.67H541.72a.7.7,0,0,0-.73.67h0v3.36H530.06v-3.36a.7.7,0,0,0-.73-.67H511.85a.7.7,0,0,0-.73.67h0v3.36H500.2v-3.36a.7.7,0,0,0-.73-.67H482a.7.7,0,0,0-.73.67h0v3.36H470.33v-3.36a.7.7,0,0,0-.73-.67h-137a.7.7,0,0,0-.73.67h0v3.36H321v-3.36a.7.7,0,0,0-.73-.67H302.79a.7.7,0,0,0-.73.67h0v3.36H291.13v-3.36a.7.7,0,0,0-.73-.67H272.92a.7.7,0,0,0-.73.67h0v3.36H261.27v-3.36a.7.7,0,0,0-.73-.67H243.05a.69.69,0,0,0-.72.67h0v3.36H231.4v-3.36a.7.7,0,0,0-.73-.67H213.19a.7.7,0,0,0-.73.67h0v3.36H201.53v-3.36a.69.69,0,0,0-.72-.67H183.32a.7.7,0,0,0-.73.67h0v3.36H171.67v-3.36a.7.7,0,0,0-.73-.67H153.45a.7.7,0,0,0-.73.67h0v3.36h-33.5c-9.66,0-17.48,7.15-17.48,16v7.22c0,8.83,7.82,16,17.48,16h581.3c9.65,0,17.48-7.15,17.48-16v-7.22c0-8.82-7.83-16-17.48-16Z" transform="translate(-12.46 -34.61)"/><rect id="e8772b6c-5a9b-4fa1-81c9-662ac65893c6" class="cls-2" x="259.91" y="154.13" width="265.42" height="279"/><rect id="a87049f2-d9c9-408d-98dd-ac42069ee321" class="cls-2" x="4.94" y="528.48" width="807.37" height="1.52"/><path id="b307d008-1640-4a06-af2e-4466e39d32c3-245" class="cls-5" d="M776.36,509.93c10.94,11.73,11.51,29,11.51,29s-17.18-1.78-28.11-13.52-11.51-29-11.51-29S765.42,498.19,776.36,509.93Z" transform="translate(-12.46 -34.61)"/><path id="e6bb151c-e5ac-48bf-b05a-35e8b71544cc-246" class="cls-6" d="M810.8,528.25c-11.74,10.94-29,11.5-29,11.5s1.78-17.17,13.51-28.11,29-11.5,29-11.5S822.54,517.31,810.8,528.25Z" transform="translate(-12.46 -34.61)"/><path id="e2659c84-c871-46e0-a841-faed920e56d0-247" class="cls-7" d="M807.88,563.09H764.71a4.43,4.43,0,0,1-4-2.49l-9.4-19.32a4.42,4.42,0,0,1,4-6.35h62a4.42,4.42,0,0,1,4.42,4.41,4.35,4.35,0,0,1-.45,1.94l-9.4,19.33a4.4,4.4,0,0,1-4,2.48Z" transform="translate(-12.46 -34.61)"/><path id="b4ca1fea-0850-4eee-815e-097d11075e0d-248" class="cls-7" d="M44.78,509.93c10.94,11.73,11.51,29,11.51,29s-17.17-1.78-28.11-13.52-11.51-29-11.51-29S33.84,498.19,44.78,509.93Z" transform="translate(-12.46 -34.61)"/><path id="f6595469-42b3-4592-aaf8-acdcc6d1b7a1-249" class="cls-7" d="M69.46,563.09H26.28a4.42,4.42,0,0,1-4-2.49l-9.4-19.32a4.41,4.41,0,0,1,2-5.9,4.52,4.52,0,0,1,1.94-.45h62a4.42,4.42,0,0,1,4.41,4.41,4.34,4.34,0,0,1-.44,1.94l-9.4,19.33a4.41,4.41,0,0,1-4,2.48Z" transform="translate(-12.46 -34.61)"/><circle id="b9fa2d1d-eaff-4f39-9574-6fdb852a47dd" class="cls-8" cx="437.1" cy="232.44" r="35.27" transform="translate(42.62 512.72) rotate(-67.5)"/><path id="a3ede095-a03b-477f-a348-b0bb518c525f-250" class="cls-9" d="M355.94,468.31l22.78-143.4A54.37,54.37,0,0,1,441,279.74a55.28,55.28,0,0,1,6.72,1.51h0a54.19,54.19,0,0,1,38.2,62.13L462.05,471.45Z" transform="translate(-12.46 -34.61)"/><path id="a14f3686-8e71-4892-a260-94847064fbe5-251" class="cls-8" d="M446.84,494a14.41,14.41,0,0,0,2.51-22l23.55-45.6-26.52,2.83-18.3,42.87A14.52,14.52,0,0,0,446.84,494Z" transform="translate(-12.46 -34.61)"/><path id="aefe090c-eadc-4acf-b060-d0ae14889076-252" class="cls-10" d="M451.89,463.93a6.47,6.47,0,0,1-3.49-1.66l-9-8.32a6.5,6.5,0,0,1-1.57-7.26l18-42.68-2.55-84.33a20.82,20.82,0,1,1,41.26,5.61v0h0l4.37,53a66.55,66.55,0,0,1-12.84,45.09l-28.08,38A6.43,6.43,0,0,1,453.4,464,6.35,6.35,0,0,1,451.89,463.93Z" transform="translate(-12.46 -34.61)"/><path id="b24d83c7-6fd4-4d89-b0e2-e143511102b2-253" class="cls-8" d="M234,213.23A14.45,14.45,0,0,0,250.8,224.8a15.57,15.57,0,0,0,2.45-.68l32.81,39.46,7.74-25.53-32.35-33.56A14.52,14.52,0,0,0,234,213.23Z" transform="translate(-12.46 -34.61)"/><path id="a479cb15-9c48-424e-90d4-4868fd6ffd90-254" class="cls-11" d="M259.67,229.58a6.55,6.55,0,0,1,2.88-2.56L273.74,222a6.46,6.46,0,0,1,7.29,1.39l32.28,33.22L392,287.11a20.82,20.82,0,0,1-21.25,35.81l0,0h0l-50.52-16.65a66.59,66.59,0,0,1-36.52-29.4l-24-40.66a6.44,6.44,0,0,1-.59-5.23,6.56,6.56,0,0,1,.62-1.38Z" transform="translate(-12.46 -34.61)"/><path id="fbb91ec3-afe3-4815-be57-4aca5997223d-255" class="cls-12" d="M449,411.65,448,445.12,428.73,478.6l16.09-37.31Z" transform="translate(-12.46 -34.61)"/><path id="b3c0f84b-28f9-45ec-afed-9c3bdf0aec76-256" class="cls-13" d="M413.22,214.76c3.63,4.31,9.79,5.52,15.47,6,11.54,1,28.31-.62,39.58-3.23.81,7.8-1.39,16.21,3.21,22.62a105.31,105.31,0,0,0,3.73-23.81c.14-3.44.08-7-1.32-10.19s-4.46-5.86-8-5.89a20,20,0,0,1,8.93-3.82l-11.16-5.61,2.87-2.94-20.21-1.24,5.85-3.71a127,127,0,0,0-26.58-.84c-4.12.3-8.42.88-11.76,3.27s-5.26,7.13-3.19,10.63a15.41,15.41,0,0,0-11.76,9.33c-1.49,3.77-1.35,8-.89,12a84.75,84.75,0,0,0,4.45,18.83" transform="translate(-12.46 -34.61)"/><path id="a138b9cb-cdfc-4f68-9e32-04b91bb430b4-257" class="cls-3" d="M564,126.4,242.59,200.6a6.12,6.12,0,0,1-7.33-4.57l-18.4-79.74a6.11,6.11,0,0,1,4.57-7.32L542.86,34.76a6.12,6.12,0,0,1,7.32,4.58l18.41,79.73A6.12,6.12,0,0,1,564,126.4Z" transform="translate(-12.46 -34.61)"/><path id="ae469d8c-20b4-445b-a76f-3c35ff3d2f47-258" class="cls-2" d="M564,126.4,242.59,200.6a6.12,6.12,0,0,1-7.33-4.57l-18.4-79.74a6.11,6.11,0,0,1,4.57-7.32L542.86,34.76a6.12,6.12,0,0,1,7.32,4.58l18.41,79.73A6.12,6.12,0,0,1,564,126.4ZM222,111.35a3.66,3.66,0,0,0-2.74,4.4l18.4,79.73a3.67,3.67,0,0,0,4.4,2.74L563.46,124a3.68,3.68,0,0,0,2.75-4.4L547.8,39.89a3.67,3.67,0,0,0-4.39-2.75Z" transform="translate(-12.46 -34.61)"/><path id="b1e356c5-36d3-4e1f-8361-52645d018384-259" class="cls-2" d="M333.51,111.1a4.15,4.15,0,1,0,1.85,8.09h0l190.51-44A4.15,4.15,0,0,0,524,67.12Z" transform="translate(-12.46 -34.61)"/><path id="f47b3ab2-4a63-40b6-b578-ee0e1882dc1b-260" class="cls-2" d="M339.11,135.35a4.15,4.15,0,1,0,1.85,8.09h0l82-18.92a4.15,4.15,0,0,0-1.85-8.09h0Z" transform="translate(-12.46 -34.61)"/><circle id="f502afc0-c552-46f8-b839-9472032a2f9d" class="cls-14" cx="268.97" cy="105.35" r="24.88"/><path id="e70683fc-6315-4eed-926a-207d48de8bbe-261" class="cls-3" d="M280.73,154.31a3.84,3.84,0,0,1-2.43-.23l-.05,0-10-4.54a3.88,3.88,0,1,1,3.22-7.07l6.48,3,9.11-20a3.86,3.86,0,0,1,5.13-1.92h0l-.05.13.06-.13a3.88,3.88,0,0,1,1.92,5.14l-10.7,23.52a3.9,3.9,0,0,1-2.67,2.17Z" transform="translate(-12.46 -34.61)"/></svg>