<svg xmlns="http://www.w3.org/2000/svg" xmlns:xlink="http://www.w3.org/1999/xlink" viewBox="0 0 168.55 138.91"><defs><style>.cls-1{fill:url(#linear-gradient);}.cls-2{fill:url(#linear-gradient-2);}.cls-3{fill:url(#linear-gradient-3);}.cls-4{fill:url(#linear-gradient-4);}.cls-5{fill:url(#linear-gradient-5);}.cls-6{fill:url(#linear-gradient-6);}.cls-7{fill:url(#linear-gradient-7);}.cls-8{fill:url(#linear-gradient-8);}.cls-9{fill:url(#linear-gradient-9);}.cls-10{fill:none;clip-rule:evenodd;}.cls-11{clip-path:url(#clip-path);}.cls-12{fill:url(#linear-gradient-10);}.cls-13{mask:url(#mask);}.cls-14,.cls-16,.cls-21{fill-rule:evenodd;}.cls-14{fill:url(#linear-gradient-11);}.cls-15{mask:url(#mask-2);}.cls-16{fill:#cc0680;}.cls-17{mask:url(#mask-3);}.cls-18{clip-path:url(#clip-path-2);}.cls-19{fill:url(#linear-gradient-12);}.cls-20{mask:url(#mask-4);}.cls-21{fill:#fef163;}.cls-22{clip-path:url(#clip-path-3);}.cls-23{fill:url(#linear-gradient-13);}.cls-24{mask:url(#mask-5);}.cls-25{clip-path:url(#clip-path-4);}.cls-26{fill:url(#linear-gradient-14);}.cls-27{mask:url(#mask-6);}.cls-28{mask:url(#mask-7);}.cls-29{fill:#fff;}.cls-30{mask:url(#mask-8);}.cls-31{clip-path:url(#clip-path-5);}.cls-32{fill:url(#linear-gradient-15);}.cls-33{mask:url(#mask-9);}</style><linearGradient id="linear-gradient" x1="-126.15" y1="182" x2="-194.55" y2="302.41" gradientTransform="translate(256.83 -199.6)" gradientUnits="userSpaceOnUse"><stop offset="0" stop-color="#fff"/><stop offset="1"/></linearGradient><linearGradient id="linear-gradient-2" x1="-95.98" y1="171.2" x2="-175.48" y2="273.34" gradientTransform="translate(294.34 -218.37)" xlink:href="#linear-gradient"/><linearGradient id="linear-gradient-3" x1="-197.42" y1="307.48" x2="-140.9" y2="206.22" gradientTransform="translate(264.34 -139.01)" xlink:href="#linear-gradient"/><linearGradient id="linear-gradient-4" x1="-328.3" y1="7.45" x2="-133.19" y2="300.85" gradientTransform="translate(200.81 -226.01)" xlink:href="#linear-gradient"/><linearGradient id="linear-gradient-5" x1="-96.92" y1="363.95" x2="-207.75" y2="223.71" gradientTransform="translate(288.86 -139.01)" xlink:href="#linear-gradient"/><linearGradient id="linear-gradient-6" x1="85.28" y1="40.63" x2="-201.32" y2="284.75" gradientTransform="translate(316.92 -228.59)" xlink:href="#linear-gradient"/><linearGradient id="linear-gradient-7" x1="-48.68" y1="140.54" x2="-158.02" y2="254.62" gradientTransform="translate(200.81 -203.72)" xlink:href="#linear-gradient"/><linearGradient id="linear-gradient-8" x1="-19.58" y1="122.92" x2="-163.35" y2="263.15" gradientTransform="translate(280.85 -217.2)" xlink:href="#linear-gradient"/><linearGradient id="linear-gradient-9" x1="-66.14" y1="135.57" x2="-173.98" y2="273.35" gradientTransform="translate(250.01 -143.08)" xlink:href="#linear-gradient"/><clipPath id="clip-path"><path class="cls-10" d="M61.87,18.28,95.12,75.85a7.83,7.83,0,0,0,13.58,0l13.93-24.11A7.85,7.85,0,0,0,115.82,40l-10.33,0a7.84,7.84,0,0,1-7.86-7.84v-.7h7.52a4.29,4.29,0,0,0,4.28-4.27h0a4.29,4.29,0,0,0-4.28-4.27H97.63v-.7a7.86,7.86,0,0,1,7.83-7.85l54.84-.09A7.85,7.85,0,0,1,167.1,26L101.94,138.91H98.31l-3.26-8.57a4.3,4.3,0,0,0,3.87-4.26h0a4.29,4.29,0,0,0-4.28-4.27H91.8l-.35-.94a7.61,7.61,0,0,0-2.89-3.68l-5.8-4A4.28,4.28,0,0,0,86.4,109h0a4.28,4.28,0,0,0-4.27-4.28H70.39l-4.58-3.15,1-.23c2.48-.58,5.21-.87,6.23-3.21s5.46,3.32,4.21,1.1C72.65,91.12,62.6,73.7,58,65.65h7.59a4.28,4.28,0,0,0,4.27-4.27h0a4.28,4.28,0,0,0-4.27-4.28H53l-5-8.55h6.6a4.28,4.28,0,0,0,4.27-4.27h0A4.29,4.29,0,0,0,54.65,40h-20l-4.32-8.55h13.8a4.29,4.29,0,0,0,4.28-4.27h0a4.29,4.29,0,0,0-4.28-4.27H27.5A7.81,7.81,0,0,1,31.38,17l2.83-1.63a7.49,7.49,0,0,1,3.91-1h17a7.64,7.64,0,0,1,6.79,3.92"/></clipPath><linearGradient id="linear-gradient-10" x1="44.28" y1="-9.88" x2="157.67" y2="172.57" gradientUnits="userSpaceOnUse"><stop offset="0" stop-color="#ff4747"/><stop offset="1" stop-color="#ff4880"/></linearGradient><mask id="mask" x="60.12" y="69.42" width="37.19" height="8.9" maskUnits="userSpaceOnUse"><rect class="cls-1" x="60.12" y="69.42" width="37.19" height="8.9"/></mask><linearGradient id="linear-gradient-11" x1="71.4" y1="62.41" x2="85.75" y2="85.51" xlink:href="#linear-gradient-10"/><mask id="mask-2" x="97.63" y="14.27" width="70.56" height="45.28" maskUnits="userSpaceOnUse"><rect class="cls-2" x="97.63" y="14.27" width="70.56" height="45.28"/></mask><mask id="mask-3" x="67.63" y="91.95" width="57.77" height="46.95" maskUnits="userSpaceOnUse"><rect class="cls-3" x="67.63" y="91.95" width="57.77" height="46.95"/></mask><clipPath id="clip-path-2"><path class="cls-10" d="M8.38,40h4.25a4.28,4.28,0,0,0,4.27-4.27h0a4.29,4.29,0,0,0-4.27-4.28H8.38A4.29,4.29,0,0,0,4.1,35.73h0A4.28,4.28,0,0,0,8.38,40M61.87,18.28,94.16,74.2H33.9a4.28,4.28,0,0,1-4.27-4.27h0a4.28,4.28,0,0,1,4.27-4.27H61.74A4.29,4.29,0,0,0,66,61.38h0a4.29,4.29,0,0,0-4.28-4.28H17.06a4.29,4.29,0,0,1-4.28-4.27h0a4.3,4.3,0,0,1,4.28-4.28H47a4.28,4.28,0,0,0,4.27-4.27h0A4.29,4.29,0,0,0,47,40h-22a4.28,4.28,0,0,1-4.27-4.27h0a4.29,4.29,0,0,1,4.27-4.28H40.42a4.28,4.28,0,0,0,4.27-4.27h0a4.28,4.28,0,0,0-4.27-4.27H22.56a4.29,4.29,0,0,1-4.27-4.28h0a4.28,4.28,0,0,1,4.27-4.27H55.08A7.64,7.64,0,0,1,61.87,18.28Z"/></clipPath><linearGradient id="linear-gradient-12" x1="27.11" y1="-2.96" x2="73.61" y2="96.8" xlink:href="#linear-gradient-10"/><mask id="mask-4" x="4.1" y="14.36" width="71.57" height="37.55" maskUnits="userSpaceOnUse"><rect class="cls-4" x="4.1" y="14.36" width="71.57" height="37.55"/></mask><clipPath id="clip-path-3"><path class="cls-10" d="M60.9,121.81h1.3a4.29,4.29,0,0,0,4.28-4.28h0a4.29,4.29,0,0,0-4.28-4.27H60.9a4.28,4.28,0,0,0-4.27,4.27h0a4.28,4.28,0,0,0,4.27,4.28m58.62-13.35-17.58,30.45H86.5a4.3,4.3,0,0,1-4.28-4.28h0a4.29,4.29,0,0,1,4.28-4.27h8.55v0a4.3,4.3,0,0,0,3.87-4.26h0a4.29,4.29,0,0,0-4.28-4.27H72.58a4.29,4.29,0,0,1-4.28-4.28h0a4.29,4.29,0,0,1,4.28-4.27H82.83l-.07-.05A4.28,4.28,0,0,0,86.4,109h0a4.28,4.28,0,0,0-4.27-4.28H57.58a4.28,4.28,0,0,1-4.27-4.27h0a4.29,4.29,0,0,1,4.27-4.28H98.3C114,96.16,127.61,94.45,119.52,108.46Z"/></clipPath><linearGradient id="linear-gradient-13" x1="75.19" y1="81.8" x2="107.1" y2="154.71" xlink:href="#linear-gradient-10"/><mask id="mask-5" x="92.16" y="96.1" width="29.77" height="42.81" maskUnits="userSpaceOnUse"><rect class="cls-5" x="92.16" y="96.1" width="29.77" height="42.81"/></mask><clipPath id="clip-path-4"><path class="cls-10" d="M147.74,59.57l-.66,1.15a6.94,6.94,0,0,1,.66-1.15ZM98,40h10.48a2.68,2.68,0,0,0,.4,0h7.36c3.32.09,23.91.59,27,.43s11.18,5.34,6.55,15.49L167.1,26a7.85,7.85,0,0,0-6.8-11.77l-54.5.09H88.42a4.28,4.28,0,0,0-4.27,4.27h0a4.29,4.29,0,0,0,4.27,4.28h16.73a4.29,4.29,0,0,1,4.28,4.27h0a4.29,4.29,0,0,1-4.28,4.27H97.63v0a4.29,4.29,0,0,0-3.88,4.26h0A4.28,4.28,0,0,0,98,40Z"/></clipPath><linearGradient id="linear-gradient-14" x1="111.28" y1="-1.36" x2="143.06" y2="80.58" xlink:href="#linear-gradient-10"/><mask id="mask-6" x="120.21" y="14.27" width="47.97" height="35.07" maskUnits="userSpaceOnUse"><rect class="cls-6" x="120.21" y="14.27" width="47.97" height="35.07"/></mask><mask id="mask-7" x="4.1" y="14.36" width="90.06" height="59.84" maskUnits="userSpaceOnUse"><rect class="cls-7" x="4.1" y="14.36" width="90.06" height="59.84"/></mask><mask id="mask-8" x="84.15" y="14.27" width="84.04" height="46.45" maskUnits="userSpaceOnUse"><rect class="cls-8" x="84.15" y="14.27" width="84.04" height="46.45"/></mask><clipPath id="clip-path-5"><path class="cls-10" d="M4.27,0H22.88a4.28,4.28,0,0,1,4.27,4.27h0a4.28,4.28,0,0,1-4.27,4.28H4.27A4.28,4.28,0,0,1,0,4.27H0A4.28,4.28,0,0,1,4.27,0"/></clipPath><linearGradient id="linear-gradient-15" x1="11.4" y1="14.09" x2="15.74" y2="-5.43" xlink:href="#linear-gradient-10"/><mask id="mask-9" x="53.31" y="96.1" width="68.62" height="38.75" maskUnits="userSpaceOnUse"><rect class="cls-9" x="53.31" y="96.1" width="68.62" height="38.75"/></mask></defs><g id="Layer_2" data-name="Layer 2"><g id="Layer_1-2" data-name="Layer 1"><g class="cls-11"><rect class="cls-12" x="27.5" y="14.26" width="141.05" height="124.64"/></g><g class="cls-13"><path class="cls-14" d="M91.4,69.42l3.72,6.43a7.83,7.83,0,0,0,2.19,2.47h-32c-1.85-3.2-3.62-6.28-5.14-8.9Z"/></g><g class="cls-15"><path class="cls-16" d="M122.82,44.26c-.06-.13-.13-.25-.2-.37a7.66,7.66,0,0,0-6.8-3.92l-10.33,0a7.84,7.84,0,0,1-7.86-7.84v-.7h7.52a4.29,4.29,0,0,0,4.28-4.27h0a4.29,4.29,0,0,0-4.28-4.27H97.63v-.7a7.86,7.86,0,0,1,7.83-7.85l54.84-.09A7.85,7.85,0,0,1,167.1,26L147.75,59.55c.69-7.74-1.31-14.92-9.6-15q-4.25,0-8.47-.14l-6.86-.14"/></g><g class="cls-17"><path class="cls-16" d="M125.4,98.28l-23.46,40.63H98.31l-3.26-8.57a4.3,4.3,0,0,0,3.87-4.26h0a4.29,4.29,0,0,0-4.28-4.27H91.8l-.35-.94a7.61,7.61,0,0,0-2.89-3.68l-5.8-4A4.28,4.28,0,0,0,86.4,109h0a4.28,4.28,0,0,0-4.27-4.28H70.39l-2.76-1.89c2.68.22,6.58.54,12.27,1L73.14,92H98.3c4.9,0,9.94-.25,14.82.1,4.14.29,9.13,1.11,11.59,4.86a8,8,0,0,1,.69,1.28"/></g><g class="cls-18"><rect class="cls-19" x="4.1" y="14.36" width="90.06" height="59.84"/></g><g class="cls-20"><path class="cls-21" d="M8.38,40h4.25a4.28,4.28,0,0,0,4.27-4.27h0a4.29,4.29,0,0,0-4.27-4.28H8.38A4.29,4.29,0,0,0,4.1,35.73h0A4.28,4.28,0,0,0,8.38,40M61.87,18.28l13.8,23.89a61.31,61.31,0,0,1-33.24,9.74,61.5,61.5,0,0,1-20.09-3.36H47a4.28,4.28,0,0,0,4.27-4.27h0A4.29,4.29,0,0,0,47,40h-22a4.28,4.28,0,0,1-4.27-4.27h0a4.29,4.29,0,0,1,4.27-4.28H40.42a4.28,4.28,0,0,0,4.27-4.27h0a4.28,4.28,0,0,0-4.27-4.27H22.56a4.29,4.29,0,0,1-4.27-4.28h0a4.28,4.28,0,0,1,4.27-4.27H55.08A7.64,7.64,0,0,1,61.87,18.28Z"/></g><g class="cls-22"><rect class="cls-23" x="53.31" y="94.45" width="74.3" height="44.46"/></g><g class="cls-24"><path class="cls-16" d="M119.52,108.46l-17.58,30.45H93.26a44.55,44.55,0,0,1-1.1-8.55h2.89v0a4.3,4.3,0,0,0,3.87-4.26h0a4.29,4.29,0,0,0-4.28-4.27h-2A45,45,0,0,1,106.2,96.1c11.89-.06,20,.78,13.32,12.36"/></g><g class="cls-25"><rect class="cls-26" x="84.15" y="14.26" width="84.4" height="46.46"/></g><g class="cls-27"><path class="cls-21" d="M138.73,40.43c2.18,0,3.85,0,4.58,0,2.16-.11,6.85,2.61,7.78,7.79.84.4,1.69.77,2.56,1.14L167.1,26a7.85,7.85,0,0,0-6.8-11.77l-40.09.07a63.39,63.39,0,0,0,18.52,26.09"/></g><g class="cls-28"><path class="cls-29" d="M16.08,38.24a4.19,4.19,0,0,0,.82-2.51h0a4.29,4.29,0,0,0-4.27-4.28H8.38A4.29,4.29,0,0,0,4.1,35.73h0a1.48,1.48,0,0,0,0,.21,4.25,4.25,0,0,1,3.45-1.76h4.25a4.29,4.29,0,0,1,4.27,4.06m4.59-2.3v-.21h0a4.29,4.29,0,0,1,4.27-4.28H40.42a4.27,4.27,0,0,0,3.45-1.76c0,.07,0,.14,0,.21h0a4.3,4.3,0,0,1-4.28,4.28H24.12A4.27,4.27,0,0,0,20.67,35.94ZM12.79,53c0-.07,0-.14,0-.21h0a4.3,4.3,0,0,1,4.28-4.28H47a4.27,4.27,0,0,0,3.45-1.76V47h0a4.29,4.29,0,0,1-4.27,4.28H16.24A4.27,4.27,0,0,0,12.79,53Zm16.84,17.1v-.21h0a4.28,4.28,0,0,1,4.27-4.27H61.74a4.26,4.26,0,0,0,3.45-1.76,1.48,1.48,0,0,1,0,.21h0a4.28,4.28,0,0,1-4.27,4.27H33.08A4.27,4.27,0,0,0,29.63,70.14ZM61.87,18.28,94.16,74.2H91.77L61.06,21a7.68,7.68,0,0,0-6.8-3.92H21.75a4.27,4.27,0,0,0-3.46,1.76v-.21h0a4.28,4.28,0,0,1,4.27-4.27H55.08A7.64,7.64,0,0,1,61.87,18.28Z"/></g><g class="cls-30"><path class="cls-29" d="M147.74,59.57l-.66,1.15a6.94,6.94,0,0,1,.66-1.15ZM108.61,29.69a4.27,4.27,0,0,1-3.46,1.76H97.63v0a4.29,4.29,0,0,0-3.88,4.26h0a1.48,1.48,0,0,0,0,.21,4.22,4.22,0,0,1,3-1.74v0h7.53a4.29,4.29,0,0,0,4.27-4.28h0Zm58.72-4.06a7.85,7.85,0,0,0-7-11.36l-54.5.09H88.42a4.28,4.28,0,0,0-4.27,4.27h0v.21a4.27,4.27,0,0,1,3.45-1.76H105L159.48,17a7.92,7.92,0,0,1,7.85,8.64ZM150.21,55.09c-.11.27-.22.54-.35.81l.28-.48C150.16,55.31,150.19,55.2,150.21,55.09Z"/></g><g class="cls-31"><rect class="cls-32" width="27.15" height="8.55"/></g><g class="cls-33"><path class="cls-29" d="M65.65,120.05a4.25,4.25,0,0,0,.83-2.52h0a4.29,4.29,0,0,0-4.28-4.27H60.9a4.28,4.28,0,0,0-4.27,4.27h0a1.55,1.55,0,0,0,0,.22A4.25,4.25,0,0,1,60.09,116h1.29a4.28,4.28,0,0,1,4.27,4.07m-12.34-19.4v-.21h0a4.29,4.29,0,0,1,4.27-4.28H98.3c14.51,0,27.19-1.46,22.72,9.32,1.25-7.79-10.39-6.59-23.54-6.59H56.76A4.27,4.27,0,0,0,53.31,100.65Zm15,17.1c0-.07,0-.14,0-.22h0a4.29,4.29,0,0,1,4.28-4.27H82.83l-.07-.05a4.27,4.27,0,0,0,2.82-1.71,1.48,1.48,0,0,1,0,.21h0A4.29,4.29,0,0,1,82,115.94l.07,0H71.76A4.27,4.27,0,0,0,68.31,117.75Zm13.92,17.09c0-.07,0-.14,0-.21h0a4.29,4.29,0,0,1,4.28-4.27h8.55v0a4.29,4.29,0,0,0,3-1.74,1.48,1.48,0,0,1,0,.21h0a4.29,4.29,0,0,1-3.87,4.25v0H85.68A4.29,4.29,0,0,0,82.23,134.84Z"/></g></g></g></svg>