<svg xmlns="http://www.w3.org/2000/svg" xmlns:xlink="http://www.w3.org/1999/xlink" viewBox="0 0 655.59 488.7"><defs><style>.cls-1{fill:#e6e6e6;}.cls-2{fill:#fff;}.cls-3{fill:url(#linear-gradient);}.cls-4{fill:url(#linear-gradient-2);}.cls-5{fill:#2f2e41;}.cls-6{fill:#ffb8b8;}.cls-7{fill:url(#linear-gradient-3);}.cls-8{fill:#3f3d56;}.cls-9{isolation:isolate;opacity:0.3;}.cls-10{fill:#ccc;}</style><linearGradient id="linear-gradient" y1="13.68" x2="643.86" y2="13.68" gradientUnits="userSpaceOnUse"><stop offset="0" stop-color="#ff4747"/><stop offset="1" stop-color="#ff4880"/></linearGradient><linearGradient id="linear-gradient-2" x1="256.75" y1="123.65" x2="386.73" y2="123.65" xlink:href="#linear-gradient"/><linearGradient id="linear-gradient-3" x1="466.26" y1="239.61" x2="522.86" y2="239.61" xlink:href="#linear-gradient"/></defs><g id="Layer_2" data-name="Layer 2"><g id="Layer_1-2" data-name="Layer 1"><rect class="cls-1" x="0.27" y="0.37" width="643.86" height="412.36"/><rect class="cls-2" x="18.69" y="52.08" width="607.04" height="336.24"/><rect class="cls-3" width="643.86" height="27.35"/><circle class="cls-2" cx="20.33" cy="13.98" r="5.07"/><circle class="cls-2" cx="39.57" cy="13.98" r="5.07"/><circle class="cls-2" cx="58.81" cy="13.98" r="5.07"/><rect class="cls-1" x="73.84" y="86.97" width="155.98" height="266.47"/><rect class="cls-4" x="256.75" y="86.97" width="129.98" height="73.35"/><rect class="cls-1" x="256.75" y="180.75" width="129.98" height="78.92"/><rect class="cls-1" x="256.75" y="280.09" width="129.98" height="73.35"/><rect class="cls-1" x="414.59" y="86.97" width="155.98" height="116.12"/><rect class="cls-1" x="414.59" y="237.31" width="155.98" height="116.12"/><path class="cls-5" d="M481,184.17V162.24a29.39,29.39,0,1,1,58.78,0h0v21.93a4,4,0,0,1-4,3.94H484.92A3.94,3.94,0,0,1,481,184.17Z"/><polygon class="cls-6" points="553.81 469.57 543.45 472.44 527.45 433.83 542.75 429.59 553.81 469.57"/><path class="cls-5" d="M535.22,471.53l20-5.53h0l3.49,12.58h0l-32.58,9h0A13.06,13.06,0,0,1,535.22,471.53Z"/><polygon class="cls-6" points="445.75 477.55 434.99 477.55 429.88 436.06 445.75 436.06 445.75 477.55"/><path class="cls-5" d="M427.31,474.47h20.74v13.06h-33.8A13.06,13.06,0,0,1,427.31,474.47Z"/><path class="cls-6" d="M432.78,245.71a8.82,8.82,0,0,0,13.5.81l28.59,12.86-2.6-16.09-26.75-9.74a8.87,8.87,0,0,0-12.74,12.16Z"/><path class="cls-5" d="M492.18,342.42c-9,0-18.28-1.34-26.09-5.32a33.69,33.69,0,0,1-17.29-20.67c-4.08-12.9,1.06-25.57,6-37.82,3.08-7.59,6-14.76,6.74-21.82l.26-2.51c1.18-11.27,2.19-21,7.81-24.66,2.91-1.89,6.82-2,12-.33L529.88,245l-1.77,91.66-.3.1C527.56,336.82,510.54,342.42,492.18,342.42Z"/><path class="cls-7" d="M480.75,200.75s23.69-7,42.11-4.38c0,0-10.53,57.9-7,77.2s-61,7.45-47.81-11l4.39-21.93s-8.77-8.77-.88-19.3Z"/><path class="cls-5" d="M469.1,340.68l-29.19-5.47,10.19-78.43c.69-2.19,16.47-51.89,23.64-54.58a122.19,122.19,0,0,1,15.94-4.42l1-.21-5.85,8.78-23.31,55.84Z"/><path class="cls-5" d="M453.89,467.93l-37.72-6.28,21.17-86.43L468.84,257l.31,2.1c0,.16,3,15.6,46.62,8.75l.39-.06.1.37L569,454.63l-43,7.16-39.19-136Z"/><path class="cls-5" d="M506.17,355.36l0-.67c0-.73,2.62-74,1.76-103.48s8.7-55.18,8.8-55.44l.07-.2.22-.06c12.38-3.54,23.13,7,23.24,7.13l.15.15-3.53,29.1L552,337.72Z"/><circle class="cls-6" cx="504.32" cy="166.06" r="21.55"/><path class="cls-5" d="M474,164a23.28,23.28,0,0,1,23.25-23.25h4.38A23.29,23.29,0,0,1,524.9,164v.44h-9.27l-3.16-8.85-.64,8.85H507L505.45,160l-.32,4.47H474Z"/><path class="cls-5" d="M502.2,190.58a3.88,3.88,0,0,1-.31-4.13c4.65-8.84,11.16-25.17,2.52-35.25l-.62-.72h25.07v37.65l-22.78,4a4,4,0,0,1-.7.06A3.93,3.93,0,0,1,502.2,190.58Z"/><path class="cls-8" d="M401.23,35.13A118.45,118.45,0,1,0,408,210.05l145.28,122.6A10.92,10.92,0,0,0,567.33,316l0,0L422,193.37A118.45,118.45,0,0,0,401.23,35.13Zm-9.37,146.44a88.74,88.74,0,1,1-10.59-125h0a88.73,88.73,0,0,1,10.59,125Z"/><path class="cls-9" d="M266.82,192.16a88.75,88.75,0,0,1-15.06-119.3q-2.55,2.56-4.92,5.37A88.74,88.74,0,1,0,382.48,192.69q2.37-2.81,4.46-5.76A88.74,88.74,0,0,1,266.82,192.16Z"/><path class="cls-6" d="M511.24,283.38a8.82,8.82,0,0,0,10.66-6.47,10.06,10.06,0,0,0,.24-1.54l30.2-8.39-12.28-10.7-26.8,9.6a8.87,8.87,0,0,0-2,17.5Z"/><path class="cls-5" d="M523.79,278.94,522,261.48l25.23-13.92-16.45-19.92,2.69-22.36,6.68-2.87.21.27c3.15,4,30.8,39.72,30.8,44.13s-5.29,17.83-12.53,21.45c-7,3.49-33.18,10.27-34.3,10.55Z"/><path class="cls-10" d="M654.71,488.7H320.48a.88.88,0,0,1,0-1.75H654.71a.88.88,0,1,1,0,1.75Z"/></g></g></svg>