<svg xmlns="http://www.w3.org/2000/svg" xmlns:xlink="http://www.w3.org/1999/xlink" viewBox="0 0 842.17 568.43"><defs><style>.cls-1{fill:#e5e5e5;}.cls-2{fill:#fff;}.cls-3{fill:url(#linear-gradient);}.cls-4{fill:#3f3d56;}.cls-5{fill:#ccc;}.cls-6{fill:#f1f1f1;}.cls-7{fill:url(#linear-gradient-2);}.cls-8{fill:#eabf8f;}.cls-9{fill:#cbcbcb;}.cls-10{fill:#2f2e41;}</style><linearGradient id="linear-gradient" y1="17.88" x2="841.81" y2="17.88" gradientUnits="userSpaceOnUse"><stop offset="0" stop-color="#ff4747"/><stop offset="1" stop-color="#ff4880"/></linearGradient><linearGradient id="linear-gradient-2" x1="495.28" y1="304.84" x2="755.83" y2="304.84" xlink:href="#linear-gradient"/></defs><g id="Layer_2" data-name="Layer 2"><g id="Layer_1-2" data-name="Layer 1"><rect id="f54375ad-557d-4249-95e2-413e25c77bd8" class="cls-1" x="0.36" y="23.08" width="841.81" height="399.45"/><rect id="eb84611c-d49d-4ce2-b538-4fee0a7e188d" class="cls-2" x="24.43" y="57.33" width="793.67" height="333.28"/><rect id="a33b5263-04c3-449f-a8ad-1420252c1e48" class="cls-3" width="841.81" height="35.76"/><circle id="a01a8c4b-bf8b-4728-9381-d6cbaed15ee5" class="cls-2" cx="26.58" cy="17.82" r="6.63"/><circle id="a70f271b-ee75-4447-9507-72af025f0784" class="cls-2" cx="51.74" cy="17.82" r="6.63"/><circle id="b6ae4294-4107-4abd-ba05-1d458fcbc8d7" class="cls-2" cx="76.9" cy="17.82" r="6.63"/><path id="a98f5d70-28fc-4129-b4f3-463d07786f2f-198" class="cls-4" d="M154.46,133.2a3.27,3.27,0,0,0,0,6.54h89.29a3.27,3.27,0,0,0,0-6.54Z"/><path id="a5717240-4d8d-4c71-83bc-6deeb889f166-199" class="cls-5" d="M104,178.2a3.27,3.27,0,1,0,0,6.54H294.25a3.27,3.27,0,0,0,0-6.54Z"/><path id="f9c6f13d-6e3a-4758-9844-a0f5d5c969ce-200" class="cls-5" d="M104,204.2a3.27,3.27,0,1,0,0,6.54H294.25a3.27,3.27,0,0,0,0-6.54Z"/><path id="bf808dfd-2bb2-4793-b7c6-d8671bf7e9b4-201" class="cls-5" d="M104,230.2a3.27,3.27,0,1,0,0,6.54H294.25a3.27,3.27,0,0,0,0-6.54Z"/><path id="e27373f7-fd0b-426a-8828-0829b084b689-202" class="cls-5" d="M104,256.2a3.27,3.27,0,1,0,0,6.54H294.25a3.27,3.27,0,0,0,0-6.54Z"/><path id="b4c6c7b3-e22e-4fba-a4f6-80d19d07dbd3-203" class="cls-5" d="M104,282.2a3.27,3.27,0,1,0,0,6.54H294.25a3.27,3.27,0,0,0,0-6.54Z"/><path id="ebf0dc46-a6ad-47cb-a3de-ddb71e9e94e3-204" class="cls-5" d="M104,308.2a3.27,3.27,0,1,0,0,6.54H294.25a3.27,3.27,0,0,0,0-6.54Z"/><path class="cls-6" d="M731.71,316.14H443.61a7.29,7.29,0,0,1-7.27-7.26V139.4a7.27,7.27,0,0,1,7.27-7.26h288.1A7.26,7.26,0,0,1,739,139.4V308.88A7.27,7.27,0,0,1,731.71,316.14Z"/><path class="cls-2" d="M769.61,354.9H481.51a7.27,7.27,0,0,1-7.27-7.26V178.16a7.29,7.29,0,0,1,7.27-7.26h288.1a7.27,7.27,0,0,1,7.26,7.26V347.64A7.26,7.26,0,0,1,769.61,354.9Z"/><path class="cls-4" d="M769.61,357.37H481.51a9.74,9.74,0,0,1-9.74-9.73V178.17a9.75,9.75,0,0,1,9.74-9.74h288.1a9.74,9.74,0,0,1,9.73,9.74V347.64A9.73,9.73,0,0,1,769.61,357.37Zm-288.1-184a4.8,4.8,0,0,0-4.79,4.8V347.64a4.79,4.79,0,0,0,4.79,4.79h288.1a4.8,4.8,0,0,0,4.79-4.79V178.17a4.81,4.81,0,0,0-4.79-4.8Z"/><circle class="cls-4" cx="625.17" cy="285.43" r="25"/><path class="cls-7" d="M673.4,261.38a16.1,16.1,0,0,0-22.76-.67l-.27.26-81.08,81.08c-10.38,10.43-21.22-5.53-28.15-12-16.66-16.48-34.66,14.42-45.86,23.26H755.83V350Z"/><path class="cls-8" d="M352.23,359.66l-4.38-60.75L355.72,242l-22.36-1.51-4.42,62.88,12.48,59.14a8.8,8.8,0,1,0,12.28-2,9,9,0,0,0-1.47-.86Z"/><path class="cls-9" d="M330.5,248.65l5.25-22.73a17.5,17.5,0,0,1,34.44,5.9L367.3,257.5Z"/><polygon class="cls-8" points="371.9 557.6 382.44 557.6 387.46 516.93 371.9 516.93 371.9 557.6"/><path class="cls-10" d="M369.21,554.16H390a13.24,13.24,0,0,1,13.23,13.24v.43h-34Z"/><polygon class="cls-8" points="424.42 557.25 434.56 554.35 428.18 513.88 413.23 518.16 424.42 557.25"/><path class="cls-10" d="M420.89,554.68l20-5.71h0A13.22,13.22,0,0,1,457.21,558l.12.42-32.68,9.36Z"/><path class="cls-10" d="M366.2,542.84l4.91-123.18-12.74-55.74c-17.14-28.74,1.35-74.57,1.54-75l.07-.17.18,0L405,282.62l.63,1.44a214.72,214.72,0,0,1,13.95,127.52l-4.67,23.87L438,528.56l-21.83,10.91-16.75-43.42-11.31,44.42Z"/><path class="cls-9" d="M354,300.31l-14.63-42.86c-9.09-16-3.32-30.22,3.12-39.33,6.95-9.83,7.37-15.34,7.46-15.41l.07,0,19.22-.59L387,220.15c1.12-.43,10.57,22.85,9.77,24l12.42,40.16Z"/><path class="cls-8" d="M472.43,307.72l-48.18-37.27L387.1,226.6l-16,15.65L415,287.5l52.37,30.17a8.8,8.8,0,1,0,6.73-10.47,9.37,9.37,0,0,0-1.63.52Z"/><path class="cls-9" d="M366.5,258.11,353.07,239a17.5,17.5,0,0,1,27.37-21.72l17.2,19.29Z"/><circle class="cls-8" cx="357.38" cy="174.01" r="22.82"/><path class="cls-10" d="M380.58,162.43H344.35V146.64c7.95-3.16,15.74-5.85,20.44,0a15.79,15.79,0,0,1,15.79,15.79Z"/><path class="cls-10" d="M349.34,142.85c-33.19-.91-26.91,53.79-26.91,53.79s6.27.83,9.12,1.31L335,196l3.71,2.43c1.71,0,3.5,0,5.35-.05l1.71-3.51,3.79,3.44c6.91,0,25.67.2,25.67.2S386.54,143.87,349.34,142.85Z"/><path class="cls-9" d="M618.18,568.43h-381a1,1,0,1,1,0-2h381a1,1,0,0,1,0,2Z"/></g></g></svg>